<svg id="Layer_1" data-name="Layer 1" xmlns="http://www.w3.org/2000/svg" viewBox="0 0 105.38 102.02"><defs><style>.cls-1{fill:none;stroke:#231f20;stroke-linecap:round;stroke-linejoin:round;stroke-width:3px;}</style></defs><title>ICONS</title><polygon class="cls-1" points="28.85 35.11 32.02 43.68 75.81 30.26 71.9 21.32 28.85 35.11"/><path class="cls-1" d="M77.68,44.43V70.52s.56,3.91-6.15,4.29-34.66,0-34.66,0S32,74.43,31.27,70V44.05Z"/><line class="cls-1" x1="31.46" y1="53" x2="77.68" y2="53"/><line class="cls-1" x1="67.52" y1="44.94" x2="74.21" y2="52.9"/><line class="cls-1" x1="59.13" y1="44.94" x2="65.82" y2="52.9"/><line class="cls-1" x1="50.75" y1="44.94" x2="57.43" y2="52.9"/><line class="cls-1" x1="42.36" y1="44.94" x2="49.05" y2="52.9"/><line class="cls-1" x1="33.97" y1="44.94" x2="40.66" y2="52.9"/><line class="cls-1" x1="63.75" y1="24.84" x2="72.45" y2="30.54"/><line class="cls-1" x1="55.72" y1="27.26" x2="64.42" y2="32.96"/><line class="cls-1" x1="47.69" y1="29.67" x2="56.39" y2="35.37"/><line class="cls-1" x1="39.66" y1="32.09" x2="48.36" y2="37.79"/><line class="cls-1" x1="31.63" y1="34.51" x2="40.33" y2="40.2"/><line class="cls-1" x1="54.48" y1="58.03" x2="54.48" y2="69.03"/></svg>