<svg id="Layer_1" data-name="Layer 1" xmlns="http://www.w3.org/2000/svg" viewBox="0 0 105.38 102.02"><defs><style>.cls-1{fill:none;stroke:#231f20;stroke-linecap:round;stroke-linejoin:round;stroke-width:3px;}</style></defs><title>ICONS</title><path class="cls-1" d="M36.16,37.18H69.41s.4,21.41-16.9,20.88C35,57.52,36.16,37.18,36.16,37.18Z"/><line class="cls-1" x1="35.3" y1="26.84" x2="51.12" y2="43.85"/><path class="cls-1" d="M37,42.77s2.18,3.34,7.27,2.15,7.07-2.37,11.64.65,13-2.15,13-2.15"/><line class="cls-1" x1="52.52" y1="58.06" x2="52.52" y2="75.6"/><line class="cls-1" x1="43.58" y1="76.14" x2="61.77" y2="76.14"/><path class="cls-1" d="M59.19,36.74A10.11,10.11,0,0,1,62,30a10.81,10.81,0,0,1,7.11-2.9c10.12-.75,12.05,11.73,7.1,16.36s-8.93,2.8-8.93,2.8"/><path class="cls-1" d="M69.09,27.06s.32,10.76.32,10.12l6.67-7.1"/><line class="cls-1" x1="78.78" y1="36.96" x2="69.41" y2="36.96"/><line class="cls-1" x1="61.98" y1="29.95" x2="76.2" y2="43.42"/></svg>