<svg id="Layer_1" data-name="Layer 1" xmlns="http://www.w3.org/2000/svg" viewBox="0 0 105.38 102.02"><defs><style>.cls-1{fill:none;stroke:#231f20;stroke-linecap:round;stroke-linejoin:round;stroke-width:3px;}</style></defs><title>ICONS</title><path class="cls-1" d="M35.66,39.62s3-14.72,17.33-14.54S69,40.36,69,43.72s-.56,6.52,2.24,7.27"/><path class="cls-1" d="M32.87,45.77s6.52.56,7.64-1.86S42.93,31,52.25,30.49s11,8.76,11,17.33,7.27,9.32,7.27,9.32"/><path class="cls-1" d="M32.68,51.55s8.2.37,12.11-3.91,1.68-10.25,7.08-11,7.83,5.4,5.4,11.93S47,61.24,35.11,62.35"/><path class="cls-1" d="M33.61,57.14s19,0,19.2-15.47"/><path class="cls-1" d="M35.66,67.57s13.6-4.1,19.2-4.1,13.23,4.85,13.23,4.85"/><path class="cls-1" d="M58.22,56.39a16,16,0,0,0,12.11,6.15"/><path class="cls-1" d="M39.21,72.23S50,68.32,54.11,68.69s11.37,4.1,11.37,4.1"/></svg>