<svg id="Layer_1" data-name="Layer 1" xmlns="http://www.w3.org/2000/svg" viewBox="0 0 105.38 102.02"><defs><style>.cls-1{fill:none;}.cls-1,.cls-2{stroke:#231f20;stroke-linecap:round;stroke-linejoin:round;stroke-width:3px;}</style></defs><title>ICONS</title><circle class="cls-1" cx="52.49" cy="51.76" r="25.33"/><polygon class="cls-2" points="52.48 30.5 44.09 35.53 47.44 42.43 58.25 42.43 61.23 35.35 52.48 30.5"/><polygon class="cls-2" points="41.48 51.19 47.63 60.32 42.04 66.28 34.02 61.25 34.4 51.19 41.48 51.19"/><polygon class="cls-2" points="63.47 51.19 58.07 60.32 62.73 66.66 70.92 61.63 71.11 51.75 63.47 51.19"/><polygon class="cls-2" points="35.14 33.11 36.26 37.77 31.79 45.78 27.87 45.78 31.6 38.14 35.14 33.11"/><polyline class="cls-1" points="52.49 26.43 52.49 33.86 47.44 42.43 41.48 51.19 34.4 51.19 31.6 42.99 36.26 36.28 44.09 35.53 71.3 35.35 76.26 43.73 73.91 44.67 71.11 51.75 62.73 66.66 57.88 72.44 46.88 72.06 38.87 62 45.21 60.13 60.67 59.95 63.47 51.19 54.9 39.45"/><polygon class="cls-2" points="69.62 33.88 67.76 37.05 73.53 44.32 76.33 43.38 69.62 33.88"/><polygon class="cls-2" points="45.77 76.31 46.88 72.4 57.88 72.77 59 75.75 45.77 76.31"/><polyline class="cls-1" points="30.11 63.67 36.17 59.75 66.64 59.58 74.65 64.03"/></svg>